<svg xmlns="http://www.w3.org/2000/svg" width="80" height="80" viewBox="0 0 80 80">
  <g id="ic_create_pass" transform="translate(-0.089)">
    <path id="Path_2640" data-name="Path 2640" d="M316.822,68.9a10.49,10.49,0,1,0,7.417,3.072A10.421,10.421,0,0,0,316.822,68.9Zm3.364,13.853a4.757,4.757,0,1,1,0-6.727A4.726,4.726,0,0,1,320.186,82.752Z" transform="translate(-260.207 -55.902)" fill="#003fb9"/>
    <path id="Path_2641" data-name="Path 2641" d="M73,7.1A24.246,24.246,0,0,0,33.422,33.439L.116,66.733.089,79.973,23.942,80V70.809h9.192V61.621h9.192V50.983L46.65,46.66a24.422,24.422,0,0,0,9.207,1.81A24.235,24.235,0,0,0,73,7.1ZM69.5,37.874a19.17,19.17,0,0,1-13.642,5.648,19.4,19.4,0,0,1-8.638-2.034l-1.6-.8-8.248,8.245v7.739H28.184v9.188H18.992v9.185L5.049,75.03l.013-6.243L39.4,34.465l-.8-1.6a19.294,19.294,0,1,1,30.9,5Z" transform="translate(0)" fill="#003fb9"/>
  </g>
</svg>
